<svg width="512" height="512" viewBox="0 0 512 512" fill="none" xmlns="http://www.w3.org/2000/svg">
<path fill-rule="evenodd" clip-rule="evenodd" d="M70 56C61.1634 56 54 63.1634 54 72V96.8188C40.6207 101.391 31 114.072 31 129V409C31 427.778 46.2223 443 65 443H464C482.778 443 498 427.778 498 409V129C498 110.222 482.778 95 464 95H194L182.945 66.2563C180.568 60.0773 174.632 56 168.011 56H70Z" fill="url(#paint0_linear)"/>
<path d="M54 96.8188L56.4252 103.916L61.5 102.182V96.8188H54ZM194 95L187 97.6923L188.849 102.5H194V95ZM182.945 66.2563L189.945 63.564L189.945 63.564L182.945 66.2563ZM61.5 72C61.5 67.3056 65.3056 63.5 70 63.5V48.5C57.0213 48.5 46.5 59.0213 46.5 72H61.5ZM61.5 96.8188V72H46.5V96.8188H61.5ZM38.5 129C38.5 117.377 45.9881 107.483 56.4252 103.916L51.5748 89.7218C35.2532 95.2992 23.5 110.767 23.5 129H38.5ZM38.5 409V129H23.5V409H38.5ZM65 435.5C50.3645 435.5 38.5 423.636 38.5 409H23.5C23.5 431.92 42.0802 450.5 65 450.5V435.5ZM464 435.5H65V450.5H464V435.5ZM490.5 409C490.5 423.636 478.636 435.5 464 435.5V450.5C486.92 450.5 505.5 431.92 505.5 409H490.5ZM490.5 129V409H505.5V129H490.5ZM464 102.5C478.636 102.5 490.5 114.364 490.5 129H505.5C505.5 106.08 486.92 87.5 464 87.5V102.5ZM194 102.5H464V87.5H194V102.5ZM175.945 68.9487L187 97.6923L201 92.3077L189.945 63.564L175.945 68.9487ZM168.011 63.5C171.528 63.5 174.682 65.666 175.945 68.9487L189.945 63.564C186.454 54.4885 177.735 48.5 168.011 48.5V63.5ZM70 63.5H168.011V48.5H70V63.5Z" fill="#FAFFF7"/>
<g filter="url(#filter0_d)">
<path d="M159.412 335.241C170.867 335.241 180.164 325.861 180.164 314.489C180.164 303.034 170.867 293.737 159.412 293.737C148.04 293.737 138.66 303.034 138.66 314.489C138.66 325.861 148.04 335.241 159.412 335.241ZM159.412 272.902C170.867 272.902 180.164 263.522 180.164 252.15C180.164 240.695 170.867 231.398 159.412 231.398C148.04 231.398 138.66 240.695 138.66 252.15C138.66 263.522 148.04 272.902 159.412 272.902ZM251.468 355.412L307.166 190.808H276.702L221.834 355.412H251.468ZM356.556 355.412L412.254 190.808H381.79L326.922 355.412H356.556Z" fill="white"/>
</g>
<defs>
<filter id="filter0_d" x="132.66" y="184.808" width="293.594" height="184.604" filterUnits="userSpaceOnUse" color-interpolation-filters="sRGB">
<feFlood flood-opacity="0" result="BackgroundImageFix"/>
<feColorMatrix in="SourceAlpha" type="matrix" values="0 0 0 0 0 0 0 0 0 0 0 0 0 0 0 0 0 0 127 0"/>
<feOffset dx="4" dy="4"/>
<feGaussianBlur stdDeviation="5"/>
<feColorMatrix type="matrix" values="0 0 0 0 0 0 0 0 0 0 0 0 0 0 0 0 0 0 0.5 0"/>
<feBlend mode="normal" in2="BackgroundImageFix" result="effect1_dropShadow"/>
<feBlend mode="normal" in="SourceGraphic" in2="effect1_dropShadow" result="shape"/>
</filter>
<linearGradient id="paint0_linear" x1="264.5" y1="56" x2="264.5" y2="443" gradientUnits="userSpaceOnUse">
<stop stop-color="#2E64B9"/>
<stop offset="0.354167" stop-color="#5365AA"/>
<stop offset="1" stop-color="#F96C64"/>
</linearGradient>
</defs>
</svg>
